<svg width="298" height="96" viewBox="0 0 298 96" fill="none" xmlns="http://www.w3.org/2000/svg">
<path d="M15 75L38.7868 75C52.1504 75 58.8429 58.8429 49.3934 49.3934L25.6066 25.6066C16.1571 16.1571 3.35276e-06 22.8496 5.31362e-06 36.2132L8.8039e-06 60C1.00195e-05 68.2843 6.71574 75 15 75Z" fill="#333333"/>
<path d="M60 75L36.2132 75C22.8497 75 16.1572 58.8428 25.6066 49.3934L49.3934 25.6066C58.8429 16.1571 75 22.8496 75 36.2132L75 60C75 68.2843 68.2843 75 60 75Z" fill="#333333"/>
<path d="M142 36L142 59.7868C142 73.1504 125.843 79.8429 116.393 70.3934L92.6066 46.6066C83.1571 37.1571 89.8496 21 103.213 21L127 21C135.284 21 142 27.7157 142 36Z" fill="#333333"/>
<path d="M283 21L259.213 21C245.85 21 239.157 37.1572 248.607 46.6067L272.393 70.3934C281.843 79.8429 298 73.1504 298 59.7868L298 36C298 27.7158 291.284 21 283 21Z" fill="#333333"/>
<path d="M238 21L261.787 21C275.15 21 281.843 37.1572 272.393 46.6067L248.607 70.3934C239.157 79.8429 223 73.1504 223 59.7868L223 36C223 27.7158 229.716 21 238 21Z" fill="#333333"/>
<path d="M156 60L156 36.2132C156 22.8496 172.157 16.1572 181.607 25.6066L205.393 49.3934C214.843 58.8429 208.15 75 194.787 75L171 75C162.716 75 156 68.2843 156 60Z" fill="#333333"/>
</svg>
